<?xml version="1.0" encoding="UTF-8" standalone="no"?>
<svg
   fill="none"
   viewBox="0 0 1081 650"
   version="1.1"
   id="svg473"
   sodipodi:docname="image.b0c2306b.svg"
   inkscape:version="1.2.2 (b0a84865, 2022-12-01)"
   xmlns:inkscape="http://www.inkscape.org/namespaces/inkscape"
   xmlns:sodipodi="http://sodipodi.sourceforge.net/DTD/sodipodi-0.dtd"
   xmlns="http://www.w3.org/2000/svg"
   xmlns:svg="http://www.w3.org/2000/svg">
  <sodipodi:namedview
     id="namedview475"
     pagecolor="#ffffff"
     bordercolor="#000000"
     borderopacity="0.25"
     inkscape:showpageshadow="2"
     inkscape:pageopacity="0.0"
     inkscape:pagecheckerboard="0"
     inkscape:deskcolor="#d1d1d1"
     showgrid="false"
     inkscape:zoom="0.51346831"
     inkscape:cx="717.66844"
     inkscape:cy="365.16372"
     inkscape:window-width="1440"
     inkscape:window-height="847"
     inkscape:window-x="0"
     inkscape:window-y="25"
     inkscape:window-maximized="1"
     inkscape:current-layer="g466" />
  <g
     clip-path="url(#a)"
     id="g466">
    <path
       fill="#F3F2F1"
       d="M649.035 605.586a1577.943 1577.943 0 00-184.945-1.362l-2.815 1.177c25.916 15.708 58.638 11.537 88.679 15.542 18.105 2.415 35.738 7.961 53.943 9.433 18.205 1.473 37.988-1.824 51.108-14.525 1.389-1.345 2.771-2.993 2.724-4.925-.094-3.75-4.948-5.091-8.694-5.34zM980.49 623.12c-5.783-3.358-12.725-3.895-19.399-4.355-12.197-.838-24.394-1.678-36.591-2.518-9.987-.686-20.218-1.35-29.834 1.433-9.615 2.783-18.653 9.76-21.01 19.487l-.065.318c17.342 3.558 34.764 7.127 52.44 8.049 17.679.924 35.767-.897 52.084-7.764 3.431-1.442 7.254-3.797 7.411-7.516.13-3.059-2.388-5.596-5.036-7.134M275.359 603.51c-5.785-3.359-12.725-3.896-19.399-4.355l-36.592-2.518c-9.986-.686-20.217-1.35-29.834 1.431-9.616 2.783-18.652 9.761-21.011 19.487l-.063.318c17.342 3.558 34.762 7.128 52.44 8.051 17.679.922 35.766-.898 52.082-7.764 3.433-1.444 7.256-3.798 7.413-7.516.13-3.061-2.387-5.596-5.036-7.134"
       id="path132" />
    <path
       fill="#DADBD8"
       d="M90.025 246.879l-13.115 4.022s3.378 11.01-8.007 14.715c-5.91 1.926-10.187-1.022-12.353-3.62-2.517-3.016-3.287-7.099-2.324-10.905 1.099-4.349 4.952-9.177 14.269-10.33l-9.07-29.564-12.968 3.977 5.312 17.318s-16.746 10.277-10.599 30.316c5.883 19.172 24.447 18.351 31.809 16.095 5.63-1.728 24.39-8.968 17.046-32.024M40.661 196.843l13.161-4.036 3.77 12.289-13.161 4.036-3.77-12.289zM353.951 468.938l-7.395 2.265s1.904 6.209-4.515 8.299c-3.334 1.085-5.745-.577-6.968-2.042-1.418-1.702-1.852-4.002-1.31-6.149.621-2.452 2.793-5.175 8.047-5.825l-5.115-16.672-7.313 2.242 2.995 9.766s-9.443 5.796-5.976 17.095c3.317 10.813 13.786 10.35 17.937 9.076 3.175-.971 13.753-5.056 9.613-18.055M326.114 440.72l7.421-2.276 2.127 6.93-7.422 2.275-2.126-6.929zM959.367 15.163l7.726-.389s-.327-6.484 6.408-6.94c3.499-.236 5.431 1.964 6.256 3.684.96 1.996.817 4.334-.235 6.283-1.202 2.227-3.974 4.334-9.227 3.679l.877 17.416 7.64-.386-.514-10.2s10.575-3.309 9.98-15.114C987.709 1.902 977.446-.21 973.11.006c-3.318.168-14.575 1.538-13.743 15.157zM979.45 49.333l-7.754.39-.365-7.238 7.752-.392.367 7.24M314.957 20.578l7.728-.39s-.327-6.485 6.407-6.94c3.498-.237 5.43 1.964 6.256 3.684.959 1.997.817 4.335-.236 6.283-1.201 2.227-3.974 4.334-9.227 3.678l.877 17.416 7.639-.383-.513-10.202s10.575-3.31 9.98-15.114C343.3 7.316 333.037 5.203 328.699 5.42c-3.315.168-14.573 1.538-13.742 15.158M335.04 54.747l-7.754.39-.364-7.239 7.754-.39.364 7.24z"
       id="path134" />
    <path
       fill="#E7E8E5"
       d="M1061.19 143.337l-11.67 7.21s6.06 9.796-4.02 16.262c-5.23 3.36-10.11 1.59-12.87-.375-3.19-2.28-4.97-6.034-5.01-9.961-.03-4.486 2.47-10.131 11.19-13.606l-16.26-26.304-11.54 7.131 9.53 15.408s-13.6 14.181-2.58 32.01c10.55 17.059 28.3 11.567 34.85 7.52 5.01-3.096 21.32-14.85 8.38-35.295M1000.76 107.428l11.71-7.237 6.76 10.935-11.71 7.234-6.76-10.932"
       id="path136" />
    <path
       fill="#FAFAF9"
       d="M349.718 247.607l8.382 6.162s5.176-7.036 12.583-1.786c3.848 2.728 3.988 6.664 3.387 9.157-.698 2.898-2.835 5.214-5.589 6.35-3.147 1.299-7.828 1.139-12.747-4.009l-13.898 18.897 8.29 6.095 8.141-11.071s13.836 5.542 23.256-7.268c9.015-12.256.114-23.184-4.592-26.642-3.599-2.646-16.499-10.786-27.213 4.115M341.585 300.295l-8.412-6.185 5.776-7.855 8.413 6.183-5.777 7.857M795.306 32.51l8.383 6.16s5.176-7.036 12.583-1.786c3.848 2.728 3.988 6.664 3.387 9.157-.698 2.898-2.835 5.214-5.59 6.35-3.144 1.299-7.827 1.139-12.746-4.01l-13.9 18.9 8.29 6.092 8.143-11.07s13.836 5.542 23.258-7.268c9.011-12.256.112-23.184-4.594-26.642-3.599-2.646-16.499-10.786-27.214 4.116zM787.174 85.196l-8.414-6.184 5.778-7.855 8.413 6.183-5.777 7.856z"
       id="path138" />
    <path
       fill="#17282F"
       d="M1054.65 586.609c0 .223-231.968.402-518.044.402-286.176 0-518.091-.179-518.091-.402 0-.221 231.915-.401 518.091-.401 286.076 0 518.044.18 518.044.401z"
       id="path140" />
    <path
       fill="#FA5252"
       d="M390.843 356.922v43.611h-98.917v186.114h-47.924V156.682h170.802v43.61H291.926v156.63h98.917zM467.788 458.888h95.848l-48.538-248.152-47.31 248.152zm-6.144 41.153l-16.588 86.608h-44.237l82.328-429.967h69.43l82.328 429.967h-47.923l-16.588-86.608h-108.75zM702.887 258.034v227.267c0 39.312 16.586 62.038 50.994 62.038 35.019 0 50.995-22.726 50.995-62.038V258.034c0-38.699-15.976-62.04-50.995-62.04-34.408 0-50.994 23.341-50.994 62.04zm149.912 2.456v222.353c0 26.412-5.529 49.754-16.589 66.953 4.914 10.442 12.902 13.513 26.419 13.513h6.145v42.382h-7.988c-27.033 0-44.851-9.828-54.681-27.641-13.518 7.986-31.336 12.899-52.224 12.899-65.742 0-98.304-42.997-98.304-108.106V260.49c0-65.724 32.562-108.107 98.304-108.107 66.354 0 98.918 42.383 98.918 108.107z"
       id="path142" />
    <path
       fill="#E03131"
       d="M272.524 586.647h19.401V400.783h-19.401v185.864zM390.843 400.533h-19.401v-43.361h-98.918V244.899c5.789-6.158 10.114-10.882 10.114-10.882l-1.429-1.283c5.684-7.805 10.162-14.926 10.162-14.926l-15.139-4.293-3.708 2.448v-15.421h19.402v156.38h98.917v43.611zM414.804 200.292h-19.4v-43.36H245.881c-.018-.083-.035-.168-.054-.25h168.977v43.61M620.571 542.427a23.379 23.379 0 00-.748-.644c-3.308-2.626-7.328-4.404-11.587-5.531-2.13-.587-4.368-.843-6.625-.954-2.061 0-4.153.109-6.215.504l-72.595-379.12h-39.654 69.431L626.279 541.6l-5.708.827M420.544 586.649h-5.262l1.116-5.828a72.41 72.41 0 004.146 5.828zm32.685-42.671c-6.146-1.793-11.73-2.558-16.702-2.558-4.935 0-9.271.753-12.966 2.006l8.309-43.385h29.774l-8.415 43.937M533.861 458.888h-95.847l47.31-248.152 15.077 77.087-32.613 171.065h66.073M868.774 605.691h-7.988c-22.127 0-38.08-6.584-48.532-18.741-.195-.225-.384-.452-.574-.68a52.747 52.747 0 01-5.575-8.22c-13.518 7.986-31.336 12.899-52.224 12.899-11.697 0-22.34-1.36-31.94-3.964a103.72 103.72 0 01-2.622-.751c-42.601-12.826-63.742-50.931-63.742-103.391V260.49c0-65.724 32.562-108.107 98.304-108.107 46.562 0 76.487 20.874 90.195 56.034-10.292 23.306-29.379 76.985-27.699 85.045 1.569 7.533 18.128 20.874 27.827 27.681v.004c.002.321.091 18.453 4.153 27.557 1.094 2.453 2.613 4.802 4.442 7.038v127.101c0 26.412-5.529 49.754-16.589 66.953 4.914 10.442 12.902 13.513 26.419 13.513h6.145v42.382zm-165.887-120.39c0 39.312 16.586 62.038 50.994 62.038 35.019 0 50.995-22.726 50.995-62.038V258.034c0-38.699-15.976-62.04-50.995-62.04-34.408 0-50.994 23.341-50.994 62.04v227.267z"
       id="path144" />
    <path
       fill="#FA5252"
       d="M438.014 458.888h95.847l-48.537-248.152-47.31 248.152zm-6.144 41.153l-16.588 86.608h-44.236l82.327-429.967h69.428l82.332 429.967H557.21l-16.591-86.608H431.87zM371.442 357.172v43.611h-98.918v186.115h-47.923V156.932h170.803v43.61h-122.88v156.63h98.918zM673.111 257.622v227.267c0 39.312 16.588 62.038 50.994 62.038 35.021 0 50.996-22.726 50.996-62.038V257.622c0-38.697-15.975-62.038-50.996-62.038-34.406 0-50.994 23.341-50.994 62.038zm149.913 2.457v222.352c0 26.413-5.529 49.756-16.588 66.955 4.914 10.44 12.902 13.512 26.418 13.512H839v42.381h-7.988c-27.033 0-44.853-9.828-54.683-27.639-13.516 7.984-31.334 12.899-52.224 12.899-65.74 0-98.302-42.999-98.302-108.108V260.079c0-65.723 32.562-108.106 98.302-108.106 66.355 0 98.919 42.383 98.919 108.106"
       id="path146" />
    <path
       fill="#F3F2F1"
       d="M663.486 109.443H425.03c-13.502 0-24.446-10.941-24.446-24.438 0-13.498 10.944-24.44 24.446-24.44h238.456c13.502 0 24.447 10.942 24.447 24.44 0 13.497-10.945 24.438-24.447 24.438"
       id="path148" />
    <path
       fill="#FA5252"
       d="M425.03 60.565c-13.502 0-24.446 10.942-24.446 24.44 0 13.497 10.944 24.438 24.446 24.438h42.09V60.565h-42.09z"
       id="path150" />
    <path
       fill="#fff"
       d="M430.587 74.227c-5.316 0-9.64 4.322-9.64 9.636 0 5.314 4.324 9.636 9.64 9.636 5.314 0 9.639-4.322 9.639-9.636 0-5.314-4.325-9.636-9.639-9.636zm0 20.428c-5.953 0-10.796-4.842-10.796-10.792 0-5.952 4.843-10.792 10.796-10.792 5.953 0 10.795 4.84 10.795 10.792 0 5.95-4.842 10.792-10.795 10.792z"
       id="path152" />
    <path
       fill="#fff"
       d="M446.978 96.603l-8.298-6.546.717-.908 8.296 6.548-.715.906"
       id="path154" />
    <path
       fill="#17282F"
       d="M663.486 109.443s.552-.053 1.623-.123c.538-.011 1.201-.085 1.984-.233l1.272-.205c.445-.117.923-.241 1.429-.372 2.01-.549 4.473-1.461 7.017-3.17a23.93 23.93 0 007.271-7.509c1.104-1.653 1.891-3.61 2.603-5.683.592-2.115 1.016-4.394 1.039-6.806-.012-2.404-.294-4.92-1.059-7.421a24.863 24.863 0 00-3.659-7.21c-3.29-4.52-8.535-8.21-14.806-9.425-3.117-.666-6.436-.407-9.829-.452l-10.439.014-222.886.117c-5.343.062-10.675 1.785-14.806 5.114-4.156 3.256-7.225 7.86-8.471 12.928-1.346 5.044-.877 10.464 1.048 15.209 2.007 4.714 5.454 8.8 9.813 11.364 2.16 1.291 4.498 2.308 6.948 2.829 2.451.561 4.916.7 7.453.646 5.036.002 10.024.003 14.96.006 9.872.003 19.535.01 28.965.013l100.206.086 67.554.128 18.367.075 4.775.04c1.078.014 1.628.04 1.628.04s-.55.028-1.628.042l-4.775.04c-4.218.017-10.404.042-18.367.076-15.968.029-39.043.074-67.554.126l-100.206.086-28.965.014-14.96.005c-2.499.058-5.122-.082-7.629-.661-2.531-.538-4.947-1.585-7.179-2.918-4.502-2.646-8.063-6.86-10.14-11.732-1.993-4.905-2.474-10.5-1.088-15.713 1.289-5.238 4.458-9.997 8.75-13.361 4.268-3.437 9.782-5.223 15.301-5.283 87.029.045 165.827.086 222.886.117 3.566.005 7.047.008 10.439.014 3.372.056 6.723-.199 9.928.49 6.403 1.26 11.737 5.044 15.071 9.661a25.293 25.293 0 013.693 7.353c.768 2.547 1.044 5.107 1.044 7.548-.036 2.449-.478 4.762-1.089 6.904-.733 2.1-1.543 4.078-2.669 5.745a24.143 24.143 0 01-7.407 7.544c-2.582 1.703-5.076 2.6-7.108 3.125-.51.127-.99.245-1.44.358-.459.066-.885.126-1.282.185-.79.134-1.457.197-1.997.195-1.077.04-1.629.04-1.629.04"
       id="path156" />
    <path
       fill="#fff"
       d="M154.784 30.272H65.91v86.102h30.494l15.363 17.107 12.684-17.107h30.333V30.272"
       id="path158" />
    <path
       fill="#17282F"
       d="M154.784 30.272s.022.511.032 1.536c.01 1.053.02 2.574.036 4.55.017 4.03.045 9.904.078 17.388.036 15.076.09 36.628.155 62.626l.001.302h-.302l-30.333.03.266-.133-12.673 17.115-.251.339-.282-.314c-4.897-5.449-10.081-11.218-15.37-17.101l.263.115c-7.15.002-14.7.003-22.36.003h-8.49v-.356l.052-86.1v-.305l.304.001c26.731.063 48.977.119 64.564.156 7.739.034 13.821.061 17.997.078 2.049.017 3.626.028 4.718.036 1.063.01 1.595.034 1.595.034s-.578.023-1.661.035l-4.777.034-18.067.08-64.369.156.304-.305.051 86.1-.355-.354h8.135c7.659 0 15.209.001 22.36.003h.157l.105.115 15.357 17.116-.533.024 12.694-17.1.099-.134h.167l30.333.03-.302.3.156-62.435.077-17.456.035-4.607c.011-1.046.034-1.602.034-1.602"
       id="path160" />
    <path
       fill="#FA5252"
       d="M95.737 62.547h7.899s0-6.63 6.892-6.749c3.578-.061 5.435 2.282 6.188 4.078.876 2.085.611 4.461-.562 6.395-1.34 2.209-4.276 4.215-9.598 3.278v17.804h7.809V76.925s10.955-2.831 10.955-14.9c0-11.547-10.359-14.228-14.792-14.228-3.39 0-14.94.818-14.791 14.75M114.46 98.422h-7.926v-7.4h7.926v7.4z"
       id="path162" />
    <path
       fill="#33535F"
       d="M945.509 316.279c14.133 7.319 24.969 19.92 32.763 33.794 7.792 13.876 12.814 29.101 17.789 44.214l4.349 77.953c-16.441-27.968-29.639-60.847-33.206-93.092l10.943-.976c-7.337-1.119-13.496-6.434-17.414-12.737-3.918-6.3-5.935-13.568-7.905-20.723 4.451.663 8.902 1.324 13.351 1.985-10.454-6.977-18.034-18.131-20.67-30.418"
       id="path164" />
    <path
       fill="#20353D"
       d="M1000.41 472.24c-16.44-27.968-29.639-60.847-33.206-93.092l10.943-.976c-4.431-.675-8.432-2.882-11.769-5.911-.2-5.704-.603-11.303-1.073-16.368.225-.27.432-.532.618-.786 3.203-4.329 4.395-10.477 4.09-17.617 3.058 3.986 5.81 8.222 8.259 12.583 7.792 13.876 12.815 29.101 17.789 44.214l4.349 77.953"
       id="path166" />
    <path
       fill="#33535F"
       d="M1002.85 490.507s35.69-42.712 35.28-83.484h-14.42s15.66-10.298 14.42-16.063c-1.24-5.765-1.65-27.593-1.65-27.593l-13.18 3.293s9.89-4.942 11.12-12.766c1.24-7.826-2.88-44.068-2.88-44.068s-16.07 16.886-21.01 34.183c-4.94 17.299-17.921 37.478-14.11 90.195 3.81 52.718 6.43 56.303 6.43 56.303M984.752 494.538s-38.669-25.755-47.26-58.624l11.592-3.155s-14.845-4.851-15.11-9.758c-.266-4.909-4.712-22.546-4.712-22.546l11.321-.235s-9.03-1.81-11.737-7.831c-2.706-6.023-7.325-36.062-7.325-36.062s16.611 10.063 24.37 22.888c7.76 12.825 22.609 26.213 31.081 69.43 8.474 43.215 7.78 45.893 7.78 45.893"
       id="path168" />
    <path
       fill="#17282F"
       d="M1021.79 347.065c.01.003-.01.158-.06.458-.06.344-.14.781-.24 1.332-.24 1.22-.57 2.925-.99 5.093-.46 2.21-.99 4.916-1.57 8.064-.6 3.146-1.31 6.723-2 10.692-1.46 7.928-3.02 17.398-4.64 27.928-1.57 10.54-3.16 22.147-4.58 34.36-1.4 12.222-2.51 23.887-3.38 34.51-.83 10.624-1.47 20.2-1.86 28.252-.23 4.023-.36 7.666-.5 10.865-.15 3.2-.24 5.955-.31 8.208-.08 2.208-.14 3.944-.19 5.187-.03.557-.05 1-.07 1.35-.02.302-.04.459-.05.459-.01-.001-.03-.157-.03-.461 0-.349-.01-.794-.01-1.351.01-1.244.02-2.982.04-5.192.02-2.256.07-5.013.17-8.216.1-3.2.19-6.848.39-10.876.31-8.059.9-17.647 1.68-28.284a967.01 967.01 0 013.32-34.542 992.013 992.013 0 014.65-34.38c1.66-10.533 3.28-20 4.82-27.918.72-3.967 1.47-7.539 2.1-10.678.63-3.143 1.21-5.84 1.71-8.04.49-2.156.87-3.853 1.15-5.066.13-.541.23-.974.31-1.313.08-.294.12-.444.14-.441"
       id="path170" />
    <path
       fill="#33535F"
       d="M1007.8 516.66s32.66-37.052 42.8-59.45l-7.65-3.27c5.55.917 11.23-1.469 15.54-5.091 4.3-3.62 7.46-8.383 10.56-13.076l-10.09-1.703c9.17-2.573 17.26-8.832 22.04-17.067-11.9 1.957-22.67 8.493-31.54 16.661-7.19 6.615-13.27 14.295-19.12 22.142a75.65 75.65 0 00-7.42 12.201c-5.49 11.344-15.14 35.045-15.12 48.653"
       id="path172" />
    <path
       fill="#17282F"
       d="M936.977 377.893c.014-.004.086.111.219.344.149.277.336.619.567 1.045.512.981 1.218 2.333 2.112 4.05 1.83 3.518 4.384 8.661 7.448 15.058 6.134 12.789 14.134 30.698 21.951 50.888 7.806 20.204 13.938 38.835 18.005 52.423 2.038 6.796 3.61 12.317 4.623 16.151l1.162 4.416c.114.471.208.849.282 1.154.059.261.083.397.069.401-.012.004-.063-.124-.147-.379l-.361-1.132a3906.91 3906.91 0 00-1.306-4.374c-1.105-3.808-2.759-9.302-4.865-16.069-4.202-13.537-10.414-32.119-18.209-52.303-7.811-20.168-15.717-38.091-21.718-50.934-2.996-6.424-5.47-11.6-7.215-15.16-.837-1.745-1.496-3.121-1.976-4.118l-.496-1.079c-.108-.246-.157-.376-.145-.382M1005.03 532.538c-.06-.006.01-.962.19-2.686.16-1.724.51-4.21 1.05-7.265 1.06-6.107 3.09-14.469 6.42-23.336 3.36-8.865 7.37-16.484 10.61-21.767 1.62-2.644 3-4.74 4.02-6.142 1.01-1.41 1.58-2.173 1.63-2.141.04.031-.45.854-1.37 2.313-.94 1.454-2.24 3.589-3.79 6.26-3.11 5.335-7.01 12.947-10.34 21.759-3.32 8.816-5.43 17.104-6.63 23.159-.6 3.028-1.03 5.493-1.29 7.202-.27 1.709-.45 2.65-.5 2.644z"
       id="path174" />
    <path
       fill="#FA5252"
       d="M961.929 538.402h71.491v-14.579h-71.491v14.579zM1026.61 538.402l-7.74 49.038h-43.195l-7.208-49.038h58.143z"
       id="path176" />
    <path
       fill="#17282F"
       d="M966.313 538.402c0-.222 13.525-.402 30.203-.402 16.684 0 30.204.18 30.204.402 0 .221-13.52.402-30.204.402-16.678 0-30.203-.181-30.203-.402z"
       id="path178" />
    <path
       fill="#33535F"
       d="M83.715 460.372c16.239-16.616 41.681-23.597 64.128-17.596-19.499 13.07-41.411 20.074-64.886 20.267M105.466 383.369c-2.672-18.893 4.672-40.146 18.821-53.877.466 18.724-7.44 39.794-18.821 53.877zM94.151 419.057c10.083-19.268 26.634-35.08 46.343-44.277-5.906 21.753-24.516 39.548-46.516 44.478M91.81 425.943c11.413.319 22.963-.082 34.001-3.001 11.038-2.922 21.61-8.533 28.955-17.272-22.203.024-44.355 6.785-62.787 19.162M97.603 403.261c-5.793-21.708-15.353-36.724-32.42-48.888-1.29 10.561 1.306 21.555 7.187 30.424s14.998 15.541 25.233 18.464zM54.52 440.697c-.3-12.614 7.833-25.01 19.525-29.76-.948 11.209-9.756 24.177-19.526 29.76zM49.066 422.395c-1.297-18.132-14.184-34.91-31.374-40.842 3.942 18.14 14.434 33.242 31.374 40.842zM57.284 454.877c-4.026-5.758-10.594-9.338-17.39-11.115-6.796-1.778-13.897-1.935-20.921-2.082 9.476 10.423 23.702 16.347 37.776 15.729M65.441 501.147c-12.661-3.909-26.772-2.898-38.749 2.774C14.718 509.591 4.996 519.867 0 532.137c23.772-4.508 47.23-15.064 65.441-30.99zM91.531 485.064c-3.948 11.672-3.19 25.776 5.588 35.834 3.572-11.974 1.46-25.512-5.588-35.834zM106.951 478.582c1.099 15.005 10.695 29.1 24.255 35.625.672.324 1.453.635 2.144.351 1.07-.434 1.168-1.894 1.035-3.041-1.719-14.952-12.799-29.411-27.434-32.935zM117.024 477.067c6.677 7.214 16.416 11.498 26.247 11.547 9.83.049 19.612-4.133 26.362-11.279-16.723-1.829-36.018-3.05-52.609-.268"
       id="path180" />
    <path
       fill="#17282F"
       d="M119.527 343.416c.011.005-.041.171-.153.49l-.509 1.415-2.017 5.412c-.901 2.343-1.939 5.231-3.141 8.584l-1.938 5.368c-.66 1.909-1.356 3.928-2.087 6.047-2.963 8.465-6.253 18.627-9.805 29.94a1213.052 1213.052 0 00-10.752 37.046 1123.886 1123.886 0 00-9.388 37.424c-2.607 11.569-4.848 22.011-6.467 30.834l-1.186 6.284-.956 5.625c-.606 3.512-1.125 6.536-1.473 9.019l-.877 5.71-.244 1.482c-.059.334-.094.504-.105.502-.011-.001.003-.174.04-.511l.181-1.492c.179-1.342.433-3.265.759-5.728.31-2.49.794-5.522 1.366-9.04l.908-5.636 1.143-6.298c1.563-8.838 3.76-19.298 6.337-30.882a1042.011 1042.011 0 019.345-37.461 1119.484 1119.484 0 0110.806-37.054c3.586-11.308 6.921-21.461 9.94-29.914l2.132-6.035 1.985-5.352c1.235-3.344 2.308-6.221 3.244-8.55.914-2.308 1.63-4.111 2.13-5.372l.569-1.392c.131-.311.204-.47.213-.465"
       id="path182" />
    <path
       fill="#17282F"
       d="M27.674 391.237c.008-.006.105.085.288.272l.8.841c.698.743 1.71 1.856 2.973 3.326 2.524 2.936 6.087 7.289 9.846 13.124 3.76 5.817 7.612 13.227 10.295 22.019 2.758 8.767 4.47 18.73 6.175 29.142 3.4 20.848 7.573 39.516 10.592 53.022l3.622 15.987.964 4.353.236 1.136c.049.255.069.388.059.391-.011.003-.052-.125-.123-.377-.075-.288-.173-.655-.296-1.121l-1.081-4.324c-.913-3.807-2.216-9.242-3.82-15.943-3.134-13.481-7.38-32.152-10.784-53.018-1.705-10.416-3.394-20.347-6.106-29.073-2.637-8.748-6.42-16.124-10.115-21.952-3.693-5.841-7.193-10.225-9.654-13.206a188.093 188.093 0 00-2.879-3.4l-.752-.883c-.167-.202-.248-.308-.24-.316M122.02 476.356c.001.023-.206.059-.602.11-.469.054-1.041.117-1.731.191-.385.038-.803.08-1.251.123-.46.069-.954.143-1.479.224-1.061.157-2.271.311-3.59.605-.664.133-1.357.268-2.076.412-.715.182-1.457.368-2.223.562-1.548.352-3.147.917-4.852 1.432-3.362 1.179-6.982 2.694-10.59 4.663-3.594 1.997-6.776 4.3-9.493 6.595-1.319 1.192-2.59 2.31-3.643 3.495-1.126 1.115-2.038 2.274-2.881 3.325-.89 1.016-1.509 2.07-2.134 2.939-.636.865-1.093 1.668-1.462 2.326l-.887 1.496c-.21.339-.329.513-.349.504-.02-.009.061-.202.234-.562l.785-1.562c.338-.679.767-1.503 1.378-2.396.602-.894 1.201-1.975 2.076-3.02.829-1.079 1.732-2.267 2.853-3.412 1.047-1.213 2.319-2.358 3.643-3.577 2.727-2.347 5.937-4.69 9.57-6.709 3.646-1.992 7.311-3.506 10.712-4.663 1.725-.504 3.344-1.057 4.909-1.387l2.25-.53 2.099-.376c1.332-.265 2.554-.392 3.626-.515.53-.062 1.027-.119 1.492-.171.453-.025.874-.046 1.262-.068.696-.027 1.272-.052 1.744-.072.4-.009.61-.005.61.018M126.783 391.638c.029.034-.402.444-1.205 1.159l-3.442 2.987a1059.85 1059.85 0 01-11.511 9.662 1084.122 1084.122 0 01-11.634 9.523c-1.432 1.132-2.63 2.082-3.57 2.828-.853.656-1.337 1.001-1.365.967-.027-.034.404-.447 1.208-1.162l3.443-2.985c2.924-2.501 6.992-5.918 11.509-9.662 4.517-3.745 8.629-7.106 11.627-9.517l3.573-2.829c.852-.657 1.338-1.005 1.367-.971M130.894 413.753c.05.169-8.73 2.912-19.609 6.127-10.883 3.213-19.743 5.681-19.793 5.513-.05-.172 8.728-2.913 19.611-6.128 10.879-3.213 19.741-5.68 19.791-5.512zM98.472 404.949c-.038.023-.36-.427-.906-1.259-.618-.944-1.393-2.123-2.315-3.526a206.116 206.116 0 00-8.045-11.335 219.18 219.18 0 00-8.817-10.749 7486.375 7486.375 0 00-2.78-3.172c-.655-.75-1.002-1.182-.97-1.211.031-.032.44.34 1.152 1.04.715.697 1.719 1.735 2.935 3.039a149.101 149.101 0 018.988 10.664c3.308 4.332 6.048 8.441 7.918 11.479.936 1.521 1.667 2.764 2.147 3.641.482.872.731 1.365.693 1.389M67.979 417.223c.076.054-.748 1.326-2.06 3.388a193.231 193.231 0 00-4.935 8.164 195.252 195.252 0 00-4.5 8.415c-1.102 2.18-1.773 3.538-1.859 3.501-.076-.034.45-1.458 1.451-3.696 1.001-2.239 2.501-5.281 4.352-8.536 1.853-3.253 3.702-6.096 5.115-8.1 1.412-2.006 2.37-3.183 2.436-3.136"
       id="path184" />
    <path
       fill="#17282F"
       d="M57.546 455.479c-.045.088-1.72-.73-4.462-1.963a137.709 137.709 0 00-10.895-4.363 138.637 138.637 0 00-11.24-3.384c-2.913-.746-4.732-1.15-4.714-1.245.009-.045.474.007 1.308.137.835.125 2.035.35 3.51.669 2.951.633 6.993 1.698 11.348 3.219 4.35 1.524 8.174 3.213 10.876 4.557 1.352.672 2.432 1.242 3.163 1.666.732.419 1.127.669 1.106.707zM65.76 501.216c.004.023-.182.085-.541.183-.435.109-.956.244-1.58.404-1.482.34-3.453.795-5.842 1.347-4.922 1.143-11.78 2.573-19.072 5.031-7.295 2.483-13.552 5.641-17.796 8.359a68.166 68.166 0 00-4.902 3.412c-1.124.857-1.736 1.345-1.769 1.307-.014-.017.12-.159.392-.416.277-.25.67-.636 1.22-1.085 1.075-.925 2.702-2.184 4.812-3.597 4.21-2.837 10.494-6.086 17.833-8.584 7.352-2.48 14.237-3.837 19.187-4.87 2.407-.47 4.392-.858 5.884-1.148 1.39-.26 2.164-.386 2.174-.343M95.46 512.489c-.174.026-1.22-6.132-2.335-13.75-1.115-7.624-1.877-13.82-1.702-13.847.174-.024 1.22 6.132 2.335 13.753 1.115 7.619 1.877 13.819 1.702 13.844M126.382 501.263c-.074.056-1.114-1.229-2.786-3.307a481.229 481.229 0 00-6.604-8.061 478.005 478.005 0 00-6.806-7.894c-1.76-2.005-2.847-3.248-2.78-3.313.032-.031.346.242.885.758a77.356 77.356 0 012.228 2.25 165.312 165.312 0 016.963 7.789 166.952 166.952 0 016.472 8.194 71.506 71.506 0 011.833 2.583c.418.619.63.977.595 1.001"
       id="path186" />
    <path
       fill="#FA5252"
       d="M44.55 529.935v15.276h3.82l13.582 42.854H92.07l13.157-42.43 5.093-.424v-15.276H44.55z"
       id="path188" />
    <path
       fill="#17282F"
       d="M107.774 545.635c0 .175-13.3.32-29.701.32-16.407 0-29.703-.145-29.703-.32 0-.176 13.296-.319 29.703-.319 16.402 0 29.701.143 29.701.319zM129.435 447.379c.008.043-.68.227-1.93.521-1.357.327-3.137.755-5.287 1.275a225.48 225.48 0 00-17.209 5.005 224.893 224.893 0 00-16.742 6.411c-2.025.886-3.703 1.618-4.982 2.179-1.174.521-1.834.789-1.853.749-.02-.038.603-.384 1.746-.975 1.14-.595 2.815-1.407 4.906-2.368 4.179-1.921 10.06-4.359 16.72-6.602 6.66-2.234 12.818-3.846 17.31-4.84 2.246-.498 4.072-.862 5.341-1.077 1.267-.221 1.972-.321 1.98-.278"
       id="path190" />
    <path
       fill="#FAFAF9"
       d="M97.774 569.434c0 .177-9.33.32-20.838.32-11.51 0-20.84-.143-20.84-.32 0-.178 9.33-.319 20.84-.319 11.508 0 20.838.141 20.838.319zM98.946 565.89c0 .178-9.888.321-22.083.321-12.199 0-22.085-.143-22.085-.321 0-.177 9.886-.319 22.085-.319 12.195 0 22.083.142 22.083.319z"
       id="path192" />
    <path
       fill="#17282f"
       d="m -371.03817,341.43976 c 0,0 -0.043,0.387 -0.166,1.131 l -0.573,3.301 c -0.525,2.921 -1.289,7.18 -2.271,12.636 l -8.443,46.101 0.002,-0.097 10.209,64.481 0.046,0.293 -0.279,0.1 -24.713,8.917 -0.327,0.117 -0.135,-0.316 c -2.508,-5.818 -5.163,-11.973 -7.852,-18.213 -4.721,-11.169 -9.312,-22.083 -13.272,-32.828 -0.505,-1.339 -0.947,-2.698 -1.407,-4.041 -0.218,-0.678 -0.35,-1.391 -0.528,-2.085 -0.179,-0.695 -0.339,-1.39 -0.392,-2.097 -0.171,-1.407 -0.362,-2.807 -0.367,-4.204 -0.063,-1.398 -0.105,-2.788 -0.042,-4.167 0.119,-5.521 0.667,-10.894 1.364,-16.105 1.357,-10.431 3.203,-20.25 4.886,-29.439 l 4.768,-25.544 c 0.664,-3.911 1.444,-7.625 2.22,-11.128 l 1.451,-5.022 c 0.55,-1.598 1.163,-3.119 1.711,-4.603 2.431,-5.847 5.568,-10.468 8.862,-13.493 3.268,-3.065 6.493,-4.583 8.725,-5.266 a 15.125,15.125 0 0 1 2.605,-0.568 l 0.679,-0.05 c 0.152,-0.001 0.229,0.01 0.229,0.01 0,0 -0.307,0.031 -0.898,0.115 -0.589,0.102 -1.466,0.265 -2.57,0.635 -2.2,0.725 -5.368,2.269 -8.571,5.334 -3.229,3.025 -6.3,7.622 -8.677,13.441 -0.536,1.478 -1.135,2.991 -1.673,4.582 l -1.415,5.001 c -0.754,3.486 -1.511,7.181 -2.162,11.105 l -4.679,25.562 c -1.656,9.191 -3.478,19.009 -4.812,29.416 -0.688,5.198 -1.224,10.555 -1.335,16.029 -0.061,1.37 -0.016,2.743 0.048,4.122 0.003,1.386 0.196,2.754 0.364,4.132 0.051,0.697 0.209,1.37 0.383,2.04 0.174,0.672 0.297,1.353 0.513,2.024 0.459,1.334 0.899,2.681 1.403,4.017 3.959,10.708 8.554,21.623 13.271,32.786 l 7.845,18.206 -0.463,-0.199 24.721,-8.896 -0.233,0.393 c -3.764,-24.123 -7.198,-46.133 -10.067,-64.504 l -0.008,-0.05 0.01,-0.047 8.689,-46.057 2.423,-12.606 0.652,-3.284 c 0.153,-0.742 0.251,-1.118 0.251,-1.118 m 50.94,-31.914 c 0.034,0.018 -0.166,0.479 -0.571,1.317 l -1.793,3.593 -6.454,12.479 -0.252,0.487 -0.326,-0.446 a 200.185,200.185 0 0 0 -23.366,-26.66 c -2.1,-2.019 -3.845,-3.607 -5.044,-4.714 -1.209,-1.094 -1.861,-1.72 -1.828,-1.76 0.032,-0.038 0.749,0.513 2.018,1.543 a 133.98,133.98 0 0 1 5.213,4.549 c 4.321,3.935 10.041,9.666 15.746,16.534 a 173.431,173.431 0 0 1 7.814,10.108 l -0.578,0.04 6.692,-12.353 a 8013.71,8013.71 0 0 1 1.963,-3.501 c 0.467,-0.808 0.734,-1.233 0.766,-1.216 m 6.472,5.297 c 0.248,-0.09 1.487,4.419 0.602,10.433 l -0.154,1.055 -0.524,-0.969 a 29.788,29.788 0 0 1 -0.814,-1.629 c -1.393,-3.128 -2.142,-6.096 -2.912,-8.151 -0.737,-2.068 -1.347,-3.288 -1.247,-3.344 0.079,-0.046 0.86,1.101 1.736,3.152 0.905,2.039 1.742,4.996 3.098,8.035 a 34,34 0 0 0 0.785,1.586 l -0.678,0.086 c 0.53,-2.789 0.388,-5.455 0.343,-7.285 -0.063,-1.86 -0.311,-2.939 -0.235,-2.969 m -5.212,-0.175 c 0.014,0 0.023,0.134 0.032,0.398 0.005,0.305 0.013,0.689 0.02,1.165 a 183.28,183.28 0 0 1 -0.021,4.483 c -0.054,3.89 -0.222,9.522 -0.603,16.471 -0.735,13.902 -2.433,33.05 -4.171,54.205 l -4.636,54.172 -1.489,16.41 -0.444,4.457 -0.132,1.158 c -0.034,0.261 -0.059,0.393 -0.071,0.392 -0.012,0 -0.014,-0.136 -0.005,-0.398 l 0.06,-1.165 0.304,-4.469 1.255,-16.429 c 1.134,-13.915 2.694,-33.049 4.419,-54.19 1.739,-21.156 3.518,-40.295 4.386,-54.174 0.447,-6.939 0.695,-12.561 0.838,-16.448 l 0.161,-4.476 c 0.021,-0.478 0.04,-0.86 0.054,-1.166 0.017,-0.262 0.03,-0.396 0.043,-0.396 m 10.354,34.518 c 0.205,0.015 -0.899,19.645 -2.465,43.841 -1.566,24.201 -3.001,43.802 -3.206,43.786 -0.203,-0.015 0.899,-19.641 2.465,-43.843 1.568,-24.196 3.003,-43.8 3.206,-43.784 z"
       id="path446" />
    <path
       fill="#ffffff"
       d="m -429.91668,420.19732 c -0.057,0.114 -2.073,-0.835 -5.395,-2.199 a 119.301,119.301 0 0 0 -13.251,-4.552 119.148,119.148 0 0 0 -13.707,-2.902 c -3.551,-0.537 -5.768,-0.76 -5.758,-0.886 0.004,-0.056 0.563,-0.061 1.572,-0.022 1.009,0.032 2.466,0.146 4.261,0.345 3.588,0.392 8.525,1.225 13.847,2.693 5.318,1.474 9.981,3.296 13.261,4.803 1.642,0.752 2.95,1.404 3.832,1.894 0.887,0.486 1.363,0.777 1.338,0.826 m -2.499,50.045 c 0.022,0.053 -0.416,0.271 -1.223,0.623 -0.807,0.356 -1.995,0.818 -3.48,1.342 -2.969,1.054 -7.155,2.293 -11.877,3.232 -4.723,0.932 -9.066,1.382 -12.212,1.539 -1.574,0.081 -2.849,0.105 -3.73,0.085 -0.881,-0.017 -1.368,-0.052 -1.369,-0.108 -0.003,-0.123 1.937,-0.24 5.055,-0.542 3.119,-0.301 7.414,-0.837 12.101,-1.762 4.684,-0.93 8.858,-2.071 11.855,-2.982 2.998,-0.909 4.837,-1.541 4.88,-1.427 m 13.109,-97.652 c -0.129,0.089 -1.372,-1.848 -3.923,-4.492 -1.262,-1.334 -2.91,-2.778 -4.848,-4.231 a 43.056,43.056 0 0 0 -6.772,-4.002 43.011,43.011 0 0 0 -7.434,-2.572 c -2.363,-0.536 -4.531,-0.857 -6.363,-0.957 -3.668,-0.234 -5.949,0.074 -5.966,-0.083 -0.006,-0.056 0.558,-0.157 1.589,-0.295 0.517,-0.078 1.15,-0.149 1.89,-0.163 0.739,-0.022 1.583,-0.091 2.514,-0.026 1.867,0.029 4.082,0.296 6.501,0.804 a 40.179,40.179 0 0 1 7.607,2.565 40.281,40.281 0 0 1 6.877,4.137 c 1.951,1.515 3.59,3.032 4.818,4.434 0.654,0.667 1.147,1.356 1.608,1.934 0.47,0.572 0.825,1.101 1.099,1.544 0.563,0.876 0.851,1.372 0.803,1.403 m 38.07,116.617 c -0.009,0.054 -0.703,-0.019 -1.948,-0.196 a 192.661,192.661 0 0 1 -5.26,-0.841 c -4.431,-0.755 -10.54,-1.891 -17.26,-3.28 -6.719,-1.388 -12.779,-2.764 -17.149,-3.828 -2.184,-0.53 -3.947,-0.978 -5.161,-1.311 -1.213,-0.33 -1.879,-0.54 -1.866,-0.593 0.013,-0.054 0.701,0.052 1.937,0.289 1.392,0.284 3.137,0.64 5.217,1.062 4.562,0.956 10.557,2.21 17.186,3.597 l 17.201,3.506 5.212,1.093 c 1.227,0.271 1.901,0.446 1.891,0.502 m 4.175,-55.245 c -0.017,0.222 -12.388,-0.524 -27.627,-1.664 -15.245,-1.142 -27.588,-2.246 -27.571,-2.466 0.017,-0.222 12.386,0.524 27.63,1.666 15.241,1.14 27.585,2.244 27.568,2.464 m 4.046,-48.623 c 0.003,0.054 -0.704,0.14 -1.987,0.251 -1.284,0.111 -3.141,0.232 -5.44,0.349 -4.595,0.234 -10.954,0.416 -17.977,0.376 -7.026,-0.043 -13.381,-0.301 -17.975,-0.591 a 161.892,161.892 0 0 1 -5.432,-0.413 c -1.283,-0.124 -1.989,-0.22 -1.986,-0.275 0.004,-0.056 0.717,-0.067 2.003,-0.037 l 5.443,0.158 c 4.593,0.145 10.94,0.312 17.952,0.355 a 719.32,719.32 0 0 0 17.952,-0.14 l 5.445,-0.094 c 1.287,-0.014 1.999,0.006 2.002,0.061 m -32.812,-45.402 c 0.015,0.12 -1.407,0.375 -3.681,0.857 a 90.179,90.179 0 0 0 -8.766,2.315 90.026,90.026 0 0 0 -8.471,3.236 c -2.127,0.934 -3.43,1.558 -3.488,1.452 -0.05,-0.088 1.16,-0.891 3.244,-1.965 2.083,-1.076 5.058,-2.386 8.469,-3.486 3.412,-1.096 6.592,-1.768 8.91,-2.11 2.32,-0.344 3.772,-0.397 3.783,-0.299 m 30.858,17.407 c -0.039,0.038 -0.545,-0.396 -1.422,-1.213 a 3548.4,3548.4 0 0 0 -3.695,-3.486 469.641,469.641 0 0 0 -12.355,-11.301 474.908,474.908 0 0 0 -12.777,-10.826 l -3.925,-3.222 c -0.923,-0.768 -1.418,-1.213 -1.384,-1.258 0.034,-0.045 0.592,0.318 1.574,1.01 0.983,0.688 2.381,1.721 4.086,3.026 3.413,2.606 8.033,6.337 12.957,10.668 4.918,4.333 9.202,8.442 12.22,11.498 a 129.174,129.174 0 0 1 3.521,3.669 c 0.811,0.888 1.24,1.396 1.2,1.435 m 14.127,28.886 c -0.038,0.228 -2.562,-0.037 -5.671,-0.17 -3.109,-0.141 -5.645,-0.1 -5.663,-0.328 -0.022,-0.213 2.529,-0.616 5.699,-0.473 3.167,0.136 5.674,0.763 5.635,0.971 z m -3.639,51.394 c -0.006,0.222 -2.588,0.342 -5.768,0.266 -3.18,-0.074 -5.755,-0.314 -5.749,-0.536 0.005,-0.22 2.587,-0.341 5.767,-0.265 3.18,0.074 5.754,0.314 5.75,0.535 z m -1.793,51.367 c 0.039,0.219 -3.214,0.997 -7.266,1.742 -4.055,0.744 -7.372,1.171 -7.412,0.952 -0.04,-0.217 3.213,-0.996 7.267,-1.741 4.052,-0.745 7.371,-1.172 7.411,-0.953 z m 24.095,-40.162 c -0.105,0.052 -0.882,-1.321 -2.139,-3.532 a 245.141,245.141 0 0 0 -5.067,-8.539 242.5,242.5 0 0 0 -5.449,-8.301 c -1.436,-2.1 -2.327,-3.401 -2.236,-3.472 0.084,-0.065 1.136,1.116 2.695,3.139 1.558,2.022 3.604,4.903 5.671,8.21 2.063,3.307 3.754,6.409 4.887,8.696 1.134,2.289 1.732,3.753 1.638,3.799"
       id="path464"
       inkscape:transform-center-x="-614.19492"
       inkscape:transform-center-y="-123.94068" />
  </g>
  <defs
     id="defs471">
    <clipPath
       id="a">
      <path
         fill="#fff"
         d="M0 0h1081v650H0z"
         id="path468" />
    </clipPath>
  </defs>
</svg>
