<?xml version="1.0" encoding="UTF-8" standalone="no"?>
<svg
   fill="none"
   viewBox="0 0 609 502"
   version="1.1"
   id="svg438"
   sodipodi:docname="image.969ed1dc.svg"
   inkscape:version="1.2.2 (b0a84865, 2022-12-01)"
   xmlns:inkscape="http://www.inkscape.org/namespaces/inkscape"
   xmlns:sodipodi="http://sodipodi.sourceforge.net/DTD/sodipodi-0.dtd"
   xmlns="http://www.w3.org/2000/svg"
   xmlns:svg="http://www.w3.org/2000/svg">
  <defs
     id="defs442" />
  <sodipodi:namedview
     id="namedview440"
     pagecolor="#ffffff"
     bordercolor="#000000"
     borderopacity="0.25"
     inkscape:showpageshadow="2"
     inkscape:pageopacity="0.0"
     inkscape:pagecheckerboard="0"
     inkscape:deskcolor="#d1d1d1"
     showgrid="false"
     inkscape:zoom="1.3296988"
     inkscape:cx="360.984"
     inkscape:cy="66.556426"
     inkscape:window-width="1440"
     inkscape:window-height="847"
     inkscape:window-x="0"
     inkscape:window-y="25"
     inkscape:window-maximized="1"
     inkscape:current-layer="svg438" />
  <path
     fill="#CFE6F4"
     d="M541.929 479.172c-30.294-23.019-82.109-80.135-13.876-169.796 84.379-110.878-16.673-156.367-113.533-151.619-77.925 3.82-165.624-94.147-253.108-76.637C45.295 104.36 120.691 204.354 41.959 258.228-25.185 304.173 3.643 444.165 91.03 479.172H541.93z"
     id="path132" />
  <path
     fill="#CFE6F4"
     d="M596.611 275.842c-.468-16.441-15.784-22.818-26.007-10.916-5.865 6.828-11.456 16.623-12.503 29.722-2.34 29.314 23.307 20.821 32.89 5.125 4.088-6.693 5.857-15.62 5.62-23.931M314.4 75.314c-16.161-3.057-25.667 10.542-16.224 23.074 5.416 7.189 13.791 14.744 26.363 18.566 28.136 8.554 25.321-18.316 12.037-31.033-5.665-5.424-14.007-9.06-22.176-10.607zM47.283 225.96c6.467-15.126-4.766-27.335-19.037-20.812-8.187 3.741-17.368 10.29-23.808 21.745-14.411 25.635 12.434 28.671 27.713 18.437 6.517-4.364 11.864-11.726 15.132-19.37zM581.836 483.652c0 10.072-124.024 18.237-277.013 18.237-152.991 0-277.015-8.165-277.015-18.237 0-10.069 124.024-18.235 277.015-18.235 152.989 0 277.013 8.166 277.013 18.235"
     id="path134" />
  <path
     fill="#3A65B9"
     d="M574.371 334.043c-16.96 16.954 1.958 18.392-10.487 31.197-11.343 11.671-28.081.311-26.967 28.815.243 6.236-4.294 10.862-10.661 13.232-10.476 3.898-20.725.293-27.036-6.874a23.6 23.6 0 01-1.459-1.81c-4.789-6.538-6.537-15.398-2.988-24.179 2.88-7.124 7.98-14.133 17.02-16.928 21.206-6.555 9.435-34.64 27.359-35.872 21.615-1.488 22.391-9.416 37.731-20.104 16.261-11.329 20.476 9.548-2.512 32.523"
     id="path136" />
  <path
     fill="#3751AB"
     d="M566.767 324.78c-.474.488-39.8 41.034-67.547 75.633a23.616 23.616 0 01-1.459-1.811c27.823-34.618 66.903-74.916 67.379-75.405a1.135 1.135 0 011.627 1.583z"
     id="path138" />
  <path
     fill="#3F77C4"
     d="M578.725 390.642c-26.572 15.643-3.485 23.524-23.098 35.455-17.879 10.875-35.056-8.655-42.85 27.186-1.704 7.839-8.844 12.137-17.529 13.037-14.296 1.478-25.892-6.31-31.443-17.263a30.973 30.973 0 01-1.23-2.722c-3.859-9.682-3.18-21.271 4.065-31.06 5.88-7.942 14.487-15.025 26.637-15.59 28.507-1.329 22.9-40.081 45.608-35.844 27.386 5.109 30.903-4.509 53.44-12.872 23.891-8.869 22.412 18.476-13.6 39.673"
     id="path140" />
  <path
     fill="#3A65B9"
     d="M572.244 376.664c-.748.454-62.757 38.261-108.439 72.393a30.973 30.973 0 01-1.23-2.722c45.781-34.134 107.402-71.71 108.153-72.165a1.46 1.46 0 011.516 2.494M60.5 140.354c9.117 22.18-8.894 16.218-2.345 32.829 5.97 15.14 25.793 11.107 13.78 36.982-2.627 5.66-.222 11.678 4.739 16.318 8.164 7.633 19.01 8.255 27.597 4.075.697-.334 1.38-.705 2.044-1.109 6.938-4.185 11.965-11.688 12.074-21.159.088-7.684-1.917-16.118-9.181-22.179-17.043-14.22 4.643-35.601-11.423-43.645-19.372-9.704-17.033-17.317-27.07-33.091-10.64-16.722-22.572.919-10.215 30.979"
     id="path142" />
  <path
     fill="#3751AB"
     d="M71.087 134.736c.249.633 20.913 53.204 33.184 95.823.697-.335 1.38-.706 2.044-1.11-12.334-42.666-32.867-94.912-33.118-95.546a1.135 1.135 0 00-2.11.833z"
     id="path144" />
  <path
     fill="#3F77C4"
     d="M34.537 198.293c19.229 24.104-5.15 23.216 8.906 41.368 12.812 16.544 35.834 4.441 30.305 40.7-1.21 7.933 3.922 14.497 11.715 18.443 12.823 6.488 26.437 3.357 35.534-4.888a31.471 31.471 0 002.123-2.106c7.063-7.662 10.571-18.729 7.3-30.46-2.653-9.518-8.161-19.209-19.307-24.08-26.15-11.428-7.066-45.617-29.788-49.773-27.404-5.015-27.252-15.255-45.313-31.12-19.145-16.819-27.535 9.249-1.475 41.916"
     id="path146" />
  <path
     fill="#3A65B9"
     d="M45.587 187.553c.535.692 44.941 58.16 75.41 106.363a31.471 31.471 0 002.123-2.106c-30.562-48.237-74.69-105.353-75.227-106.045a1.46 1.46 0 10-2.306 1.788z"
     id="path148" />
  <path
     fill="#3F77C4"
     d="M164.228 177.309c7.745-5.304 27.147 7.78 37.291 23.667l-8.999-25.211c-3.257-2.825-8.96-6.789-17.871-9.948-13.858-4.91-27.748-12.605-19.986-17.918 7.272-4.982 24.814 6.248 35.329 20.786l-11.557-32.376c-2.15-1.653-5.422-3.662-10.099-5.318-8.732-3.096-17.487-7.946-12.595-11.295 4.244-2.905 14.039 2.947 20.728 11.105l-3.746-10.493c-1.714-3.049-4.15-7.405-7.99-11.379-8.897-9.205-15.624-19.56-8.762-21.061 6.868-1.501 18.109 16.537 19.877 32.835l1.928 5.4c-1.497-11.854 2.765-26.207 8.708-26.714 5.907-.505 2.203 8.79-2.597 16.716-3.654 6.034-4.663 10.822-4.932 13.299l9.104 25.504c-2.316-18.779 4.433-41.425 13.837-42.229 9.371-.802 3.493 13.948-4.121 26.525-5.755 9.504-7.376 17.064-7.819 21.019l10.917 30.584c-1.936-18.558 4.702-41.079 13.96-41.152 7.138-.056 4.952 10.021-3.573 24.248-5.793 9.668-7.647 18.349-8.239 22.922l5.143 14.406c-.861.609-1.757.928-2.648.944l-2.045-5.732c-2.891-2.796-8.912-7.547-19.256-11.214-13.858-4.912-27.747-12.605-19.987-17.92M96.07 390.972c-7.946 5-3.652 28.001 6.893 43.625l-19.556-18.28c-1.298-4.11-2.668-10.918-2.024-20.35 1.002-14.668-.536-30.472-8.497-25.464-7.461 4.693-4.132 25.254 5.029 40.682L52.8 387.709c-.663-2.629-1.205-6.43-.867-11.38.632-9.245-.338-19.204-5.354-16.048-4.355 2.74-2.878 14.055 1.949 23.435l-8.14-7.609c-2.116-2.783-5.145-6.751-7.264-11.855-4.91-11.823-11.738-22.112-15.843-16.412-4.108 5.705 7.976 23.191 22.228 31.293l4.188 3.915c-10.283-6.085-25.146-7.881-27.975-2.629-2.811 5.218 7.191 5.514 16.372 4.262 6.989-.954 11.782.023 14.163.76l19.784 18.492c-16.31-9.59-39.774-12.4-44.25-4.089-4.461 8.28 11.41 8.749 25.977 6.761 11.01-1.501 18.59.016 22.395 1.183l23.723 22.175c-16.257-9.154-39.562-12.015-43.31-3.548-2.888 6.525 7.228 8.526 23.67 6.36 11.175-1.472 19.878.278 24.31 1.552l11.174 10.445c.901-.548 1.549-1.244 1.918-2.053l-4.446-4.158c-1.416-3.762-3.383-11.176-2.635-22.126 1.001-14.668-.537-30.471-8.498-25.463"
     id="path150" />
  <path
     fill="#F7941D"
     d="M497.115 184.857v292.971H72.99V184.857h424.125z"
     id="path152" />
  <path
     fill="#F36D21"
     d="M497.101 184.868v18.781L285.053 391.596 72.99 203.649v-18.781l212.049 188.59 212.062-188.59z"
     id="path154" />
  <path
     fill="#F36D21"
     d="M244.193 336.474L85.273 477.828H72.99v-7.468l162.067-144.151 9.136 10.265M497.115 471.352v6.476h-13.396L324.8 336.474l9.135-10.265 163.18 145.143"
     id="path156" />
  <path
     fill="#F0B93A"
     d="M72.977 184.856L285.04 373.46l212.063-188.604H72.977z"
     id="path158" />
  <path
     fill="#3A65B9"
     d="M270.58 148.859l.003-.002c12.18-3.401 21.066-11.808 26.376-18.261 5.742-6.98 8.661-13.256 8.69-13.319a.608.608 0 00-1.106-.509c-.028.061-2.895 6.22-8.544 13.08-5.196 6.309-13.88 14.525-25.744 17.837a.61.61 0 00.325 1.174M284.427 149.513c10.582-2.905 19.481-11.832 19.884-12.241a.61.61 0 00-.867-.855c-.104.106-10.575 10.606-21.897 12.488a.603.603 0 00-.5.7.61.61 0 00.7.502 26.758 26.758 0 002.68-.594M276.937 71.216c10.576-2.932 19.451-11.881 19.854-12.292a.607.607 0 00-.008-.86.61.61 0 00-.862.008c-.104.105-10.548 10.632-21.865 12.543a.61.61 0 00.201 1.201 26.66 26.66 0 002.68-.6"
     id="path192" />
  <path
     fill="#F36156"
     d="M561.684 243.789c-2.745 3.072-7.131 6.983-12.588 8.411l-1.332-6.711-.248-7.005 12.169-4.724a1675.8 1675.8 0 011.394 6.925c.204 1.035.405 2.071.605 3.104"
     id="path288" />
  <path
     fill="#F7941D"
     d="M465.332 146.25h-25.344a3.522 3.522 0 01-3.521-3.524v-25.342a3.522 3.522 0 013.521-3.523h25.344a3.523 3.523 0 013.524 3.523v25.342a3.524 3.524 0 01-3.524 3.524z"
     id="path402" />
  <path
     fill="#F0B93A"
     d="M463.689 130.056a10.98 10.98 0 01-2.525 7.021 11.004 11.004 0 01-8.504 4.007 11.008 11.008 0 01-8.503-4.006 10.988 10.988 0 01-2.524-7.022c0-6.092 4.938-11.028 11.027-11.028 6.091 0 11.029 4.936 11.029 11.028"
     id="path404" />
  <path
     fill="#fff"
     d="M461.164 137.077a11.004 11.004 0 01-8.504 4.007 11.008 11.008 0 01-8.503-4.006l.148-.293a3.89 3.89 0 012.334-1.961c1.794-.548 3.461-1.103 4.394-2.707-1.136-.535-1.894-1.605-2.212-2.36-1.248.267-2.144-2.043-1.477-2.655.253-.232.512-.297.737-.284.206-2.348 2.176-4.446 4.579-4.446 2.403 0 4.375 2.098 4.581 4.446.226-.013.483.052.735.284.668.612-.228 2.922-1.476 2.655-.272.843-1.208 1.859-2.052 2.215.935 1.604 2.439 2.304 4.236 2.852.507.153.969.408 1.365.742.398.334.728.747.967 1.219l.148.292"
     id="path406" />
  <path
     fill="#F7941D"
     d="M44.5 318.476H19.156a3.522 3.522 0 01-3.523-3.521v-25.344a3.523 3.523 0 013.523-3.523H44.5a3.523 3.523 0 013.522 3.523v25.344a3.521 3.521 0 01-3.522 3.521z"
     id="path408" />
  <path
     fill="#fff"
     d="M31.826 300.761a2.993 2.993 0 11.001-5.986 2.993 2.993 0 010 5.986zm.487-9.217a7.092 7.092 0 00-7.576 7.072c0 1.32.361 2.556.992 3.616.938 1.58 1.906 3.144 2.797 4.752l3.36 6.053 5.122-9.241c.301-.542.626-1.066.939-1.599a7.013 7.013 0 00.97-3.755c-.086-3.63-2.981-6.66-6.604-6.898"
     id="path410" />
  <path
     fill="#3F77C4"
     d="M576.687 169.109a4.967 4.967 0 004.961-4.962 4.968 4.968 0 00-4.961-4.962 4.969 4.969 0 00-4.963 4.962 4.968 4.968 0 004.963 4.962zm0-12.192c3.986 0 7.23 3.243 7.23 7.23 0 3.988-3.244 7.23-7.23 7.23-3.988 0-7.231-3.242-7.231-7.23 0-3.987 3.243-7.23 7.231-7.23z"
     id="path412" />
  <path
     fill="#F7941D"
     d="M550.658 143.744a4.968 4.968 0 004.962-4.963 4.967 4.967 0 00-4.962-4.961 4.967 4.967 0 00-4.962 4.961 4.967 4.967 0 004.962 4.963zm0-12.192c3.986 0 7.23 3.244 7.23 7.229 0 3.988-3.244 7.231-7.23 7.231s-7.23-3.243-7.23-7.231c0-3.985 3.244-7.229 7.23-7.229z"
     id="path414" />
  <path
     fill="#3F77C4"
     d="M541.725 108.057c.627 0 1.135.508 1.135 1.135v5.001a1.135 1.135 0 11-2.269 0v-5.001c0-.627.508-1.135 1.134-1.135zM541.725 99.305c.627 0 1.135.508 1.135 1.135v5.001a1.134 1.134 0 01-2.269 0v-5.001c0-.627.508-1.135 1.134-1.135zM534.706 106.182h4.492a1.134 1.134 0 110 2.268h-4.492a1.134 1.134 0 010-2.268zM544.252 106.182h4.495a1.134 1.134 0 010 2.268h-4.495a1.134 1.134 0 010-2.268z"
     id="path416" />
  <path
     fill="#F7941D"
     d="M581.648 136.083c.627 0 1.135.507 1.135 1.134v5.001a1.135 1.135 0 01-2.268 0v-5.001c0-.627.508-1.134 1.133-1.134zM581.648 127.331c.627 0 1.135.506 1.135 1.133v5.001a1.135 1.135 0 11-2.268 0v-5.001c0-.627.508-1.133 1.133-1.133zM574.628 134.207h4.493c.627 0 1.133.508 1.133 1.134 0 .627-.506 1.134-1.133 1.134h-4.493a1.134 1.134 0 110-2.268zM584.176 134.207h4.492a1.135 1.135 0 110 2.268h-4.492a1.133 1.133 0 110-2.268z"
     id="path418" />
  <path
     fill="#3F77C4"
     d="M128.94 66.862a4.968 4.968 0 00-4.963 4.963 4.967 4.967 0 004.963 4.962 4.967 4.967 0 004.961-4.962 4.968 4.968 0 00-4.961-4.963zm0-2.267c3.985 0 7.229 3.243 7.229 7.23 0 3.987-3.244 7.23-7.229 7.23-3.988 0-7.231-3.243-7.231-7.23 0-3.987 3.243-7.23 7.231-7.23z"
     id="path420" />
  <path
     fill="#F7941D"
     d="M102.607 42.981a4.967 4.967 0 00-4.962 4.961 4.968 4.968 0 004.962 4.963 4.968 4.968 0 004.962-4.963 4.967 4.967 0 00-4.962-4.96zm0-2.268c3.986 0 7.23 3.243 7.23 7.23 0 3.986-3.244 7.23-7.23 7.23-3.987 0-7.23-3.244-7.23-7.23 0-3.987 3.243-7.23 7.23-7.23z"
     id="path422" />
  <path
     fill="#3F77C4"
     d="M93.07 82.041c0 .626.507 1.134 1.134 1.134h5.001a1.134 1.134 0 000-2.268h-5.001c-.627 0-1.134.508-1.134 1.134zM84.317 82.041c0 .626.508 1.134 1.134 1.134h5.002a1.134 1.134 0 000-2.268H85.45c-.626 0-1.134.508-1.134 1.134zM91.194 75.02v4.493a1.134 1.134 0 002.269 0V75.02a1.135 1.135 0 00-2.27 0zM91.194 84.568v4.493a1.134 1.134 0 002.269 0v-4.493a1.135 1.135 0 00-2.27 0z"
     id="path424" />
  <path
     fill="#F7941D"
     d="M146.031 42.981c0 .627.508 1.133 1.134 1.133h5.002a1.133 1.133 0 100-2.267h-5.002c-.626 0-1.134.508-1.134 1.134zM137.279 42.981c0 .627.508 1.133 1.134 1.133h5.002a1.133 1.133 0 000-2.267h-5.002c-.626 0-1.134.508-1.134 1.134zM144.156 35.961v4.492a1.134 1.134 0 102.268 0v-4.492a1.135 1.135 0 00-2.268 0zM144.156 45.508V50a1.134 1.134 0 102.268 0v-4.493a1.134 1.134 0 00-2.268 0z"
     id="path426" />
  <path
     fill="#CFE6F4"
     d="M447.511 77.885c.152.036.314.037.476-.001 1.717-.423 2.712-.594 2.721-.596.521-.088.865-.555.771-1.043-.094-.488-.591-.812-1.111-.724-.043.007-1.068.183-2.865.624-.512.127-.818.618-.684 1.098a.931.931 0 00.692.642M391.94 119.042a85.853 85.853 0 00-2.551 4.702c-.198.394-.665.59-1.1.486l-.174-.058c-.476-.212-.682-.747-.456-1.196a86.665 86.665 0 012.604-4.798c.253-.434.832-.594 1.298-.356.464.239.634.786.379 1.22M387.14 128.581a91.576 91.576 0 00-1.948 4.952c-.163.447-.661.698-1.141.583l-.074-.02c-.5-.159-.768-.668-.598-1.139a93.084 93.084 0 011.986-5.046c.198-.46.756-.683 1.246-.498.489.184.726.707.529 1.168zM379.029 154.885c-.462-.109-.774-.529-.713-.985.245-1.787.533-3.575.857-5.313.091-.488.587-.815 1.108-.73.527.088.868.551.778 1.039a110.655 110.655 0 00-.844 5.233c-.068.492-.547.84-1.071.776l-.115-.02M382.871 137.473c.509.135.806.63.664 1.108a98.248 98.248 0 00-1.374 5.127c-.116.484-.628.788-1.142.68l-.027-.007c-.5-.118-.811-.592-.697-1.068a103.298 103.298 0 011.398-5.216c.139-.47.654-.748 1.155-.628l.023.004M394.793 114.498a.987.987 0 01-1.042.391l-.278-.112c-.445-.265-.58-.82-.297-1.24a85.746 85.746 0 013.219-4.46c.309-.403.908-.492 1.336-.2a.862.862 0 01.213 1.253 83.529 83.529 0 00-3.151 4.368M442.619 79.413a92.996 92.996 0 00-5.264 1.864 1.012 1.012 0 01-.6.041.944.944 0 01-.65-.528c-.201-.458.031-.984.519-1.173A96.153 96.153 0 01442 77.713c.5-.16 1.044.09 1.215.559.17.47-.095.98-.596 1.141M427.224 85.876c-.223.116-.473.14-.701.087a.959.959 0 01-.602-.434c-.256-.433-.092-.98.371-1.222 1.664-.871 3.377-1.709 5.092-2.487.476-.215 1.047-.03 1.277.417.231.447.031.984-.445 1.2a98.789 98.789 0 00-4.992 2.439M409.081 98.279a1.003 1.003 0 01-1.352-.042.859.859 0 01.044-1.27 91.32 91.32 0 014.311-3.558 1 1 0 011.347.12.863.863 0 01-.128 1.266 88.844 88.844 0 00-4.222 3.484zM417.747 91.56a1.008 1.008 0 01-.799.145.957.957 0 01-.537-.343c-.312-.4-.216-.962.21-1.254a95.665 95.665 0 014.743-3.036c.445-.267 1.037-.144 1.321.273.286.419.155.974-.29 1.24a93.72 93.72 0 00-4.648 2.975M401.384 105.961a.996.996 0 01-.972.298.986.986 0 01-.376-.178.862.862 0 01-.125-1.265 87.095 87.095 0 013.796-4.041 1.001 1.001 0 011.353-.039c.385.34.404.908.041 1.269a86.09 86.09 0 00-3.717 3.956"
     id="path428" />
  <path
     fill="#3F77C4"
     d="M448.463 71.806l-1.935-14.969 50.713 7.273-48.778 7.697z"
     id="path430" />
  <path
     fill="#3A65B9"
     d="M497.241 64.11l-46.848 11.507-.124.032-2.353 2.698.547-6.54 48.778-7.698"
     id="path432" />
  <path
     fill="#3751AB"
     d="M447.916 78.347l4.211-.052-1.858-2.646-2.353 2.698z"
     id="path434" />
  <path
     fill="#3F77C4"
     d="M456.164 74.2l-5.896 1.45 9.591 13.654 37.382-25.194-41.077 10.09z"
     id="path436" />
</svg>
